<svg xmlns="http://www.w3.org/2000/svg" width="48" height="48" viewBox="0 0 48 48">
    <path fill="#E50081" fill-rule="evenodd" d="M24 43C13.507 43 5 34.493 5 24S13.507 5 24 5s19 8.507 19 19-8.507 19-19 19zm.527-23c.672 0 1.252-.222 1.74-.665.489-.443.733-1.058.733-1.844 0-.812-.25-1.43-.75-1.854A2.586 2.586 0 0 0 24.526 15c-.671 0-1.26.234-1.767.702-.507.468-.76 1.065-.76 1.789 0 .799.247 1.417.742 1.854.494.437 1.09.655 1.785.655zm-.027 4a3.5 3.5 0 0 0-3.5 3.5v4a3.5 3.5 0 0 0 7 0v-4a3.5 3.5 0 0 0-3.5-3.5z"/>
</svg>
